<svg width="200" height="200" viewBox="0 0 200 200" fill="none" xmlns="http://www.w3.org/2000/svg">
<path d="M99.9999 97.4375C96.5638 97.4375 93.6207 96.2125 91.1707 93.7625C88.7207 91.3125 87.4971 88.3708 87.4999 84.9375C87.5027 81.5041 88.7263 78.5597 91.1707 76.1041C93.6152 73.6486 96.5583 72.4278 99.9999 72.4416C103.442 72.4555 106.385 73.6778 108.829 76.1083C111.274 78.5389 112.497 81.4833 112.5 84.9416C112.503 88.4 111.279 91.3416 108.829 93.7666C106.379 96.1916 103.436 97.4125 99.9999 97.4375ZM70.8333 123.242V120.708C70.8333 118.989 71.3333 117.381 72.3333 115.883C73.336 114.383 74.6833 113.219 76.3749 112.392C80.3083 110.506 84.2444 109.092 88.1832 108.15C92.1194 107.206 96.0583 106.733 99.9999 106.733C103.942 106.733 107.882 107.206 111.821 108.15C115.76 109.094 119.693 110.508 123.621 112.392C125.315 113.219 126.662 114.383 127.662 115.883C128.665 117.381 129.167 118.989 129.167 120.708V123.242C129.167 124.464 128.751 125.492 127.921 126.325C127.09 127.153 126.062 127.567 124.837 127.567H75.1666C73.9416 127.567 72.9138 127.151 72.0833 126.321C71.2527 125.49 70.836 124.467 70.8333 123.242ZM74.9999 123.4H125V120.704C125 119.782 124.701 118.914 124.104 118.1C123.51 117.289 122.686 116.603 121.633 116.042C118.205 114.381 114.669 113.108 111.025 112.225C107.38 111.342 103.705 110.9 99.9999 110.9C96.2944 110.9 92.6194 111.342 88.9749 112.225C85.3305 113.108 81.7944 114.381 78.3666 116.042C77.311 116.603 76.4874 117.289 75.8958 118.1C75.2985 118.914 74.9999 119.783 74.9999 120.708V123.4ZM99.9999 93.2708C102.292 93.2708 104.254 92.4541 105.887 90.8208C107.521 89.1875 108.336 87.225 108.333 84.9333C108.33 82.6416 107.515 80.6805 105.887 79.05C104.26 77.4194 102.297 76.6028 99.9999 76.6C97.7027 76.5972 95.7416 77.4139 94.1166 79.05C92.4916 80.6861 91.6749 82.6472 91.6666 84.9333C91.6583 87.2194 92.4749 89.1819 94.1166 90.8208C95.7583 92.4597 97.7194 93.275 99.9999 93.2666" fill="black"/>
<circle cx="100" cy="100" r="99.5" stroke="black"/>
</svg>
